<svg xmlns="http://www.w3.org/2000/svg" xmlns:xlink="http://www.w3.org/1999/xlink" width="500" zoomAndPan="magnify" viewBox="0 0 375 374.999991" height="500" preserveAspectRatio="xMidYMid meet" version="1.0"><defs><g/><clipPath id="12609b694d"><path d="M 169 212 L 206 212 L 206 242.492188 L 169 242.492188 Z M 169 212 " clip-rule="nonzero"/></clipPath><clipPath id="5c48ce2eba"><path d="M 112.429688 149 L 144 149 L 144 187 L 112.429688 187 Z M 112.429688 149 " clip-rule="nonzero"/></clipPath><clipPath id="011b377059"><path d="M 169 92.492188 L 206 92.492188 L 206 124 L 169 124 Z M 169 92.492188 " clip-rule="nonzero"/></clipPath><clipPath id="cd8302ac43"><path d="M 231 149 L 262.429688 149 L 262.429688 187 L 231 187 Z M 231 149 " clip-rule="nonzero"/></clipPath></defs><rect x="-37.5" width="450" fill="#ffffff" y="-37.499999" height="449.999989" fill-opacity="1"/><rect x="-37.5" width="450" fill="#ffffff" y="-37.499999" height="449.999989" fill-opacity="1"/><path fill="#0b2647" d="M 166.402344 116.648438 L 165.699219 118.390625 C 163.660156 123.441406 162.390625 128.792969 161.929688 134.289062 L 161.777344 136.132812 L 163.625 136.28125 C 167.226562 136.570312 170.738281 137.164062 174.054688 138.03125 L 175.40625 138.390625 L 176.117188 137.179688 C 177.851562 134.210938 179.917969 131.3125 182.253906 128.566406 L 183.453125 127.15625 L 182.039062 125.964844 C 177.820312 122.398438 173.140625 119.511719 168.132812 117.386719 Z M 178.242188 127.625 C 176.554688 129.726562 175.011719 131.90625 173.644531 134.125 C 171.109375 133.519531 168.476562 133.070312 165.792969 132.777344 C 166.253906 128.929688 167.140625 125.164062 168.441406 121.5625 C 171.902344 123.191406 175.191406 125.226562 178.242188 127.625 Z M 178.242188 127.625 " fill-opacity="1" fill-rule="nonzero"/><g clip-path="url(#12609b694d)"><path fill="#0b2647" d="M 187.496094 242.613281 L 188.503906 241.953125 C 191.640625 239.910156 194.597656 237.511719 197.285156 234.820312 C 200.082031 232.03125 202.605469 228.863281 204.792969 225.414062 L 205.945312 223.601562 L 203.976562 222.734375 C 198.410156 220.289062 193.269531 217.042969 188.703125 213.089844 L 187.496094 212.042969 L 186.289062 213.089844 C 181.707031 217.054688 176.570312 220.300781 171.015625 222.738281 L 169.050781 223.605469 L 170.199219 225.414062 C 172.382812 228.867188 174.90625 232.03125 177.699219 234.820312 C 180.375 237.5 183.332031 239.898438 186.488281 241.953125 Z M 174.484375 225.207031 C 179.140625 222.964844 183.507812 220.175781 187.492188 216.898438 C 191.472656 220.171875 195.839844 222.960938 200.507812 225.203125 C 198.753906 227.738281 196.796875 230.09375 194.675781 232.214844 C 192.457031 234.429688 190.042969 236.4375 187.496094 238.1875 C 184.925781 236.429688 182.511719 234.421875 180.304688 232.214844 C 178.183594 230.09375 176.234375 227.742188 174.484375 225.207031 Z M 174.484375 225.207031 " fill-opacity="1" fill-rule="nonzero"/></g><path fill="#0b2647" d="M 208.574219 218.472656 L 209.277344 216.730469 C 211.316406 211.671875 212.585938 206.324219 213.042969 200.835938 L 213.199219 198.988281 L 211.355469 198.839844 C 209.484375 198.691406 207.964844 198.515625 206.484375 198.273438 C 205.65625 198.132812 204.855469 197.984375 204.078125 197.828125 C 203.289062 197.664062 202.566406 197.5 201.863281 197.324219 L 199.574219 196.734375 L 198.867188 197.941406 C 197.140625 200.898438 195.074219 203.796875 192.730469 206.550781 L 191.53125 207.960938 L 192.945312 209.15625 C 197.152344 212.710938 201.828125 215.59375 206.839844 217.730469 Z M 196.742188 207.492188 C 198.433594 205.386719 199.976562 203.207031 201.339844 200.996094 C 201.972656 201.148438 202.632812 201.296875 203.378906 201.449219 C 204.164062 201.609375 205 201.765625 205.980469 201.933594 C 206.984375 202.09375 208.019531 202.226562 209.183594 202.347656 C 208.722656 206.183594 207.835938 209.941406 206.539062 213.554688 C 203.066406 211.914062 199.78125 209.882812 196.742188 207.492188 Z M 196.742188 207.492188 " fill-opacity="1" fill-rule="nonzero"/><g clip-path="url(#5c48ce2eba)"><path fill="#0b2647" d="M 131.476562 186.027344 L 132.332031 184.054688 C 133.765625 180.777344 135.417969 177.71875 137.234375 174.976562 L 138.261719 173.472656 C 138.367188 173.324219 138.484375 173.167969 138.605469 173.007812 L 139.433594 171.875 C 139.753906 171.449219 140.054688 171.066406 140.367188 170.675781 C 140.609375 170.363281 140.917969 169.988281 141.417969 169.386719 L 143.003906 167.566406 L 141.953125 166.351562 C 141.011719 165.269531 140.117188 164.160156 139.222656 162.957031 C 138.621094 162.167969 137.992188 161.28125 137.253906 160.171875 C 135.421875 157.40625 133.769531 154.347656 132.332031 151.070312 L 131.476562 149.101562 L 129.660156 150.246094 C 126.191406 152.4375 123.019531 154.964844 120.222656 157.761719 C 117.539062 160.445312 115.136719 163.40625 113.089844 166.554688 L 112.429688 167.5625 L 113.089844 168.570312 C 115.148438 171.730469 117.546875 174.691406 120.226562 177.367188 C 123.019531 180.164062 126.195312 182.691406 129.65625 184.878906 Z M 139.28125 167.847656 Z M 116.855469 167.5625 C 118.613281 164.996094 120.625 162.582031 122.835938 160.371094 C 124.949219 158.253906 127.308594 156.296875 129.863281 154.535156 C 131.15625 157.257812 132.609375 159.835938 134.183594 162.214844 C 134.980469 163.40625 135.652344 164.363281 136.355469 165.285156 C 136.925781 166.046875 137.523438 166.808594 138.140625 167.558594 C 137.878906 167.875 137.652344 168.15625 137.476562 168.386719 C 137.105469 168.84375 136.722656 169.339844 136.296875 169.910156 L 135.65625 170.792969 C 135.492188 171.007812 135.328125 171.230469 135.136719 171.503906 L 134.171875 172.917969 C 132.597656 175.292969 131.148438 177.871094 129.859375 180.589844 C 127.304688 178.828125 124.949219 176.867188 122.835938 174.753906 C 120.625 172.550781 118.621094 170.132812 116.855469 167.5625 Z M 116.855469 167.5625 " fill-opacity="1" fill-rule="nonzero"/></g><path fill="#0b2647" d="M 166.402344 218.476562 L 168.136719 217.738281 C 173.140625 215.609375 177.816406 212.71875 182.035156 209.15625 L 183.453125 207.964844 L 182.253906 206.554688 C 179.914062 203.800781 177.847656 200.902344 176.117188 197.9375 L 175.410156 196.730469 L 174.054688 197.085938 C 170.730469 197.957031 167.222656 198.546875 163.621094 198.835938 L 161.777344 198.988281 L 161.929688 200.832031 C 162.394531 206.335938 163.664062 211.6875 165.699219 216.738281 Z M 173.644531 200.992188 C 175.007812 203.207031 176.550781 205.386719 178.242188 207.492188 C 175.191406 209.894531 171.902344 211.929688 168.441406 213.558594 C 167.140625 209.949219 166.253906 206.183594 165.792969 202.335938 C 168.480469 202.046875 171.113281 201.59375 173.644531 200.992188 Z M 173.644531 200.992188 " fill-opacity="1" fill-rule="nonzero"/><path fill="#0b2647" d="M 134.40625 220.632812 L 135.585938 220.875 C 139.195312 221.640625 142.945312 222.027344 146.734375 222.027344 C 150.800781 222.027344 154.863281 221.582031 158.816406 220.699219 L 160.914062 220.230469 L 160.132812 218.230469 C 157.929688 212.570312 156.585938 206.644531 156.148438 200.601562 L 156.03125 199.011719 L 154.4375 198.894531 C 148.386719 198.453125 142.453125 197.113281 136.800781 194.914062 L 134.800781 194.132812 L 134.332031 196.226562 C 133.445312 200.15625 132.996094 204.183594 132.996094 208.199219 C 132.996094 211.988281 133.386719 215.773438 134.160156 219.445312 Z M 137.511719 199.109375 C 142.386719 200.820312 147.453125 201.941406 152.601562 202.441406 C 153.097656 207.582031 154.21875 212.640625 155.929688 217.519531 C 149.835938 218.617188 143.519531 218.613281 137.535156 217.503906 C 136.96875 214.449219 136.6875 211.324219 136.6875 208.199219 C 136.683594 205.164062 136.964844 202.117188 137.511719 199.109375 Z M 137.511719 199.109375 " fill-opacity="1" fill-rule="nonzero"/><path fill="#0b2647" d="M 136.578125 188.652344 L 138.324219 189.355469 C 143.371094 191.386719 148.71875 192.652344 154.214844 193.117188 L 156.0625 193.269531 L 156.210938 191.425781 C 156.5 187.828125 157.089844 184.316406 157.960938 180.996094 L 158.316406 179.640625 L 157.105469 178.933594 C 154.148438 177.207031 151.253906 175.144531 148.441406 172.753906 L 147.023438 171.695312 L 145.539062 173.429688 C 145.285156 173.730469 145.066406 174 144.792969 174.347656 C 144.640625 174.535156 144.484375 174.734375 144.34375 174.929688 L 143.855469 175.554688 C 143.597656 175.902344 143.347656 176.238281 142.984375 176.757812 L 141.9375 178.25 L 141.949219 178.257812 C 140.15625 180.964844 138.597656 183.878906 137.3125 186.921875 Z M 145.035156 180.273438 L 147.011719 177.5 C 147.125 177.367188 147.234375 177.230469 147.339844 177.078125 C 147.40625 176.984375 147.480469 176.890625 147.550781 176.804688 C 149.65625 178.5 151.835938 180.042969 154.054688 181.40625 C 153.449219 183.9375 153 186.566406 152.707031 189.253906 C 148.855469 188.789062 145.09375 187.902344 141.484375 186.609375 C 142.527344 184.394531 143.714844 182.261719 145.035156 180.273438 Z M 145.035156 180.273438 " fill-opacity="1" fill-rule="nonzero"/><path fill="#0b2647" d="M 158.316406 155.46875 L 157.960938 154.113281 C 157.089844 150.796875 156.5 147.292969 156.210938 143.695312 L 156.0625 141.847656 L 154.214844 142.003906 C 148.703125 142.46875 143.351562 143.734375 138.320312 145.769531 L 136.585938 146.472656 L 137.3125 148.199219 C 138.605469 151.25 140.1875 154.199219 142.054688 157.019531 C 142.609375 157.851562 143.210938 158.707031 143.851562 159.558594 C 143.949219 159.6875 144.050781 159.8125 144.175781 159.964844 L 144.316406 160.136719 C 144.816406 160.789062 145.351562 161.445312 145.902344 162.097656 L 147.097656 163.511719 L 148.507812 162.308594 C 151.253906 159.972656 154.144531 157.90625 157.109375 156.171875 Z M 147.5625 158.304688 C 147.453125 158.167969 147.34375 158.027344 147.238281 157.886719 L 146.804688 157.351562 C 146.207031 156.550781 145.640625 155.75 145.097656 154.9375 C 143.746094 152.898438 142.535156 150.742188 141.492188 148.511719 C 145.089844 147.21875 148.851562 146.328125 152.707031 145.867188 C 153 148.550781 153.453125 151.183594 154.054688 153.707031 C 151.835938 155.078125 149.65625 156.621094 147.5625 158.304688 Z M 147.5625 158.304688 " fill-opacity="1" fill-rule="nonzero"/><path fill="#0b2647" d="M 132.996094 126.929688 C 132.996094 130.945312 133.445312 134.972656 134.332031 138.898438 L 134.804688 140.992188 L 136.800781 140.210938 C 142.460938 138 148.394531 136.652344 154.4375 136.214844 L 156.03125 136.097656 L 156.148438 134.507812 C 156.582031 128.476562 157.925781 122.546875 160.132812 116.886719 L 160.914062 114.890625 L 158.820312 114.417969 C 151.171875 112.699219 143.140625 112.640625 135.59375 114.234375 L 134.414062 114.484375 L 134.167969 115.660156 C 133.390625 119.335938 132.996094 123.125 132.996094 126.929688 Z M 137.542969 117.613281 C 143.53125 116.503906 149.851562 116.503906 155.933594 117.601562 C 154.21875 122.480469 153.097656 127.539062 152.601562 132.667969 C 147.457031 133.167969 142.394531 134.292969 137.511719 136.011719 C 136.964844 133.007812 136.6875 129.957031 136.6875 126.929688 C 136.683594 123.796875 136.972656 120.667969 137.542969 117.613281 Z M 137.542969 117.613281 " fill-opacity="1" fill-rule="nonzero"/><path fill="#0b2647" d="M 210.402344 177.640625 L 210.476562 177.378906 C 210.527344 177.214844 210.589844 177.0625 210.671875 176.898438 C 210.722656 176.800781 210.769531 176.703125 210.832031 176.609375 L 211.015625 176.378906 C 211.082031 176.296875 211.15625 176.214844 211.269531 176.109375 L 211.433594 175.957031 C 211.523438 175.882812 211.640625 175.820312 211.765625 175.746094 L 211.925781 175.632812 C 215.558594 173.816406 218.992188 171.582031 222.140625 168.984375 L 223.863281 167.5625 L 222.140625 166.140625 C 219.011719 163.550781 215.589844 161.324219 212.050781 159.550781 L 211.832031 159.417969 C 211.679688 159.335938 211.539062 159.242188 211.417969 159.144531 L 211.257812 159 C 211.15625 158.902344 211.066406 158.804688 210.984375 158.695312 C 210.949219 158.65625 210.914062 158.617188 210.882812 158.582031 L 210.84375 158.53125 C 210.757812 158.398438 210.679688 158.253906 210.605469 158.097656 C 210.5625 158.007812 210.535156 157.914062 210.507812 157.832031 C 210.464844 157.699219 210.425781 157.585938 210.402344 157.460938 C 210.378906 157.367188 210.375 157.277344 210.363281 157.179688 C 210.355469 157.089844 210.351562 156.996094 210.355469 156.847656 C 210.355469 156.761719 210.351562 156.679688 210.367188 156.5625 L 210.414062 156.339844 C 210.441406 156.234375 210.460938 156.132812 210.46875 156.023438 C 210.675781 155.386719 210.871094 154.746094 211.125 153.929688 C 211.921875 151.148438 212.5 148.273438 212.847656 145.382812 C 212.890625 145.070312 212.914062 144.765625 212.960938 144.304688 L 213.1875 141.84375 L 210.964844 142.054688 C 206.910156 142.445312 202.902344 143.292969 199.046875 144.578125 C 197.703125 145.023438 196.214844 144.410156 195.582031 143.140625 C 193.757812 139.511719 191.519531 136.070312 188.914062 132.914062 L 187.492188 131.183594 L 186.066406 132.910156 C 183.476562 136.050781 181.238281 139.492188 179.40625 143.140625 C 178.769531 144.410156 177.28125 145.03125 175.9375 144.578125 C 172.074219 143.292969 168.054688 142.445312 163.992188 142.054688 L 161.761719 141.839844 L 161.976562 144.066406 C 162.367188 148.128906 163.214844 152.144531 164.5 155.996094 C 164.949219 157.339844 164.332031 158.832031 163.066406 159.46875 C 159.417969 161.300781 155.980469 163.546875 152.832031 166.144531 L 151.117188 167.570312 L 152.839844 168.988281 C 155.984375 171.582031 159.421875 173.824219 163.058594 175.640625 C 164.328125 176.273438 164.949219 177.769531 164.5 179.113281 C 163.21875 182.976562 162.367188 186.992188 161.976562 191.058594 L 161.761719 193.285156 L 163.992188 193.070312 C 168.058594 192.679688 172.074219 191.832031 175.941406 190.546875 C 177.246094 190.105469 178.78125 190.730469 179.40625 191.984375 C 181.234375 195.632812 183.476562 199.074219 186.066406 202.210938 L 187.488281 203.9375 L 188.914062 202.210938 C 191.519531 199.054688 193.761719 195.613281 195.582031 191.980469 C 196.21875 190.707031 197.722656 190.09375 199.0625 190.550781 C 200.425781 191.011719 201.792969 191.40625 203.230469 191.761719 C 204.535156 192.082031 205.933594 192.367188 207.511719 192.632812 C 208.632812 192.816406 209.792969 192.964844 210.96875 193.074219 L 213.183594 193.289062 L 212.949219 190.71875 C 212.917969 190.382812 212.890625 190.050781 212.847656 189.738281 C 212.5 186.847656 211.921875 183.976562 211.070312 181.019531 C 210.875 180.378906 210.675781 179.738281 210.46875 179.070312 L 210.417969 178.789062 L 210.363281 178.5625 C 210.351562 178.445312 210.351562 178.332031 210.351562 178.21875 C 210.351562 178.136719 210.351562 178.058594 210.363281 177.953125 C 210.371094 177.84375 210.382812 177.742188 210.402344 177.640625 Z M 209.390625 179.023438 Z M 210.28125 172.332031 C 210.148438 172.398438 210.015625 172.476562 209.863281 172.582031 C 209.625 172.726562 209.371094 172.886719 209.15625 173.0625 C 208.984375 173.191406 208.832031 173.335938 208.667969 173.496094 C 208.488281 173.667969 208.316406 173.855469 208.195312 174 C 208.082031 174.113281 207.976562 174.230469 207.886719 174.355469 C 207.808594 174.464844 207.742188 174.582031 207.75 174.582031 C 207.75 174.582031 207.753906 174.582031 207.753906 174.578125 C 207.613281 174.796875 207.496094 175.015625 207.378906 175.242188 C 207.203125 175.589844 207.0625 175.941406 206.917969 176.421875 C 206.871094 176.578125 206.824219 176.734375 206.789062 176.898438 C 206.734375 177.175781 206.707031 177.445312 206.6875 177.640625 C 206.671875 177.832031 206.664062 178.023438 206.664062 178.21875 C 206.664062 178.457031 206.671875 178.714844 206.703125 178.976562 C 206.722656 179.148438 206.757812 179.320312 206.800781 179.492188 L 206.835938 179.699219 C 206.863281 179.855469 206.898438 180.042969 206.964844 180.242188 C 207.167969 180.863281 207.359375 181.480469 207.589844 182.226562 C 208.230469 184.472656 208.71875 186.789062 209.050781 189.132812 C 208.738281 189.085938 208.425781 189.042969 208.121094 188.992188 C 206.644531 188.742188 205.335938 188.472656 204.125 188.171875 C 202.785156 187.847656 201.519531 187.480469 200.25 187.054688 C 197.171875 186.003906 193.75 187.410156 192.289062 190.328125 C 190.933594 193.027344 189.328125 195.621094 187.496094 198.054688 C 185.675781 195.628906 184.070312 193.035156 182.710938 190.328125 C 181.59375 188.09375 179.347656 186.707031 176.847656 186.707031 C 176.148438 186.707031 175.449219 186.820312 174.777344 187.042969 C 171.914062 188 168.941406 188.695312 165.929688 189.125 C 166.359375 186.109375 167.058594 183.140625 168.011719 180.273438 C 169.035156 177.203125 167.617188 173.789062 164.71875 172.339844 C 162.015625 170.984375 159.421875 169.382812 157 167.5625 C 159.429688 165.734375 162.027344 164.125 164.730469 162.765625 C 167.625 161.308594 169.035156 157.898438 168.007812 154.828125 C 167.054688 151.972656 166.355469 149.007812 165.929688 146 C 168.941406 146.425781 171.914062 147.125 174.777344 148.078125 C 177.84375 149.09375 181.261719 147.6875 182.714844 144.789062 C 184.074219 142.082031 185.679688 139.484375 187.5 137.066406 C 189.328125 139.5 190.9375 142.09375 192.289062 144.792969 C 193.742188 147.691406 197.152344 149.101562 200.226562 148.074219 C 203.089844 147.121094 206.054688 146.421875 209.058594 145.996094 C 208.726562 148.328125 208.230469 150.65625 207.550781 153.019531 C 207.359375 153.640625 207.167969 154.257812 206.96875 154.878906 C 206.910156 155.066406 206.867188 155.257812 206.804688 155.625 C 206.761719 155.800781 206.726562 155.980469 206.710938 156.132812 C 206.675781 156.398438 206.671875 156.636719 206.671875 156.863281 C 206.671875 157.078125 206.679688 157.289062 206.699219 157.539062 C 206.722656 157.765625 206.75 157.992188 206.789062 158.183594 C 206.847656 158.472656 206.933594 158.75 207.019531 159.011719 C 207.089844 159.222656 207.167969 159.429688 207.257812 159.632812 C 207.40625 159.957031 207.574219 160.265625 207.722656 160.472656 L 207.894531 160.757812 C 207.984375 160.882812 208.085938 160.996094 208.113281 161.011719 C 208.300781 161.242188 208.507812 161.46875 208.773438 161.71875 C 208.882812 161.820312 208.988281 161.917969 209.109375 162.015625 C 209.394531 162.246094 209.710938 162.457031 209.984375 162.601562 L 210.28125 162.78125 C 212.976562 164.128906 215.566406 165.730469 217.992188 167.558594 C 215.5625 169.382812 212.976562 170.984375 210.28125 172.332031 Z M 208.746094 174.960938 Z M 208.746094 174.960938 " fill-opacity="1" fill-rule="nonzero"/><path fill="#0b2647" d="M 208.582031 116.648438 L 206.851562 117.382812 C 201.84375 119.507812 197.164062 122.394531 192.949219 125.957031 L 191.535156 127.152344 L 192.734375 128.566406 C 195.070312 131.3125 197.136719 134.210938 198.871094 137.175781 L 199.582031 138.386719 L 200.933594 138.03125 C 204.25 137.160156 207.753906 136.570312 211.355469 136.28125 L 213.199219 136.128906 L 213.046875 134.285156 C 212.585938 128.796875 211.324219 123.445312 209.289062 118.390625 Z M 201.34375 134.125 C 199.976562 131.90625 198.433594 129.726562 196.742188 127.621094 C 199.785156 125.226562 203.074219 123.195312 206.542969 121.5625 C 207.839844 125.171875 208.726562 128.9375 209.183594 132.777344 C 206.503906 133.070312 203.875 133.523438 201.34375 134.125 Z M 201.34375 134.125 " fill-opacity="1" fill-rule="nonzero"/><g clip-path="url(#011b377059)"><path fill="#0b2647" d="M 187.492188 92.492188 L 186.488281 93.152344 C 183.320312 95.222656 180.363281 97.628906 177.699219 100.300781 C 174.910156 103.09375 172.386719 106.257812 170.199219 109.710938 L 169.046875 111.523438 L 171.015625 112.386719 C 176.570312 114.820312 181.703125 118.066406 186.285156 122.027344 L 187.492188 123.074219 L 188.699219 122.027344 C 193.277344 118.066406 198.414062 114.820312 203.976562 112.386719 L 205.941406 111.523438 L 204.796875 109.710938 C 202.605469 106.246094 200.082031 103.082031 197.296875 100.296875 C 194.628906 97.628906 191.671875 95.226562 188.503906 93.15625 Z M 200.511719 109.914062 C 195.847656 112.148438 191.476562 114.9375 187.492188 118.214844 C 183.503906 114.9375 179.140625 112.148438 174.484375 109.917969 C 176.246094 107.375 178.203125 105.019531 180.316406 102.910156 C 182.511719 100.703125 184.925781 98.691406 187.496094 96.917969 C 190.070312 98.691406 192.484375 100.703125 194.691406 102.902344 C 196.800781 105.011719 198.753906 107.367188 200.511719 109.914062 Z M 200.511719 109.914062 " fill-opacity="1" fill-rule="nonzero"/></g><path fill="#0b2647" d="M 228.25 222.027344 C 232.023438 222.027344 235.773438 221.640625 239.394531 220.882812 L 240.578125 220.640625 L 240.824219 219.457031 C 241.589844 215.800781 241.980469 212.011719 241.980469 208.199219 C 241.980469 204.195312 241.535156 200.171875 240.652344 196.230469 L 240.179688 194.136719 L 238.179688 194.917969 C 237.0625 195.355469 236.0625 195.71875 235.125 196.027344 L 234.789062 196.132812 C 234.394531 196.261719 233.992188 196.390625 233.605469 196.503906 L 233.375 196.570312 C 229.53125 197.714844 225.515625 198.476562 221.25 198.847656 L 218.945312 199.007812 L 218.828125 200.609375 C 218.390625 206.648438 217.046875 212.574219 214.84375 218.230469 L 214.0625 220.234375 L 216.160156 220.703125 C 220.105469 221.582031 224.171875 222.027344 228.25 222.027344 Z M 222.371094 202.515625 L 223.453125 202.441406 L 223.453125 202.335938 C 227.191406 201.910156 230.863281 201.164062 234.371094 200.125 L 234.65625 200.042969 C 235.074219 199.917969 235.5 199.78125 235.917969 199.644531 L 237.480469 199.144531 C 238.019531 202.140625 238.292969 205.179688 238.292969 208.199219 C 238.292969 211.34375 238.007812 214.46875 237.453125 217.503906 C 231.449219 218.609375 225.128906 218.609375 219.046875 217.515625 C 220.75 212.660156 221.867188 207.621094 222.371094 202.515625 Z M 222.371094 202.515625 " fill-opacity="1" fill-rule="nonzero"/><path fill="#0b2647" d="M 226.480469 172.800781 C 223.734375 175.140625 220.835938 177.203125 217.875 178.933594 L 216.667969 179.640625 L 217.019531 180.992188 C 217.699219 183.59375 218.210938 186.277344 218.550781 189.070312 C 218.640625 189.800781 218.714844 190.542969 218.769531 191.269531 L 218.90625 193.253906 L 220.949219 193.113281 C 224.617188 192.792969 228.261719 192.101562 231.78125 191.058594 C 232.304688 190.90625 232.800781 190.746094 233.292969 190.585938 C 234.425781 190.214844 235.5625 189.800781 236.667969 189.355469 L 238.410156 188.652344 L 237.671875 186.921875 C 235.542969 181.910156 232.65625 177.230469 229.089844 173.015625 L 227.894531 171.601562 Z M 233.492188 186.617188 C 233.046875 186.78125 232.597656 186.933594 232.148438 187.082031 C 231.699219 187.226562 231.234375 187.375 230.710938 187.527344 C 227.972656 188.339844 225.144531 188.921875 222.289062 189.265625 C 222.261719 189.050781 222.238281 188.832031 222.210938 188.613281 L 222.203125 188.550781 C 221.914062 186.152344 221.480469 183.753906 220.925781 181.410156 C 223.144531 180.046875 225.320312 178.503906 227.421875 176.8125 C 229.820312 179.859375 231.859375 183.148438 233.492188 186.617188 Z M 233.492188 186.617188 " fill-opacity="1" fill-rule="nonzero"/><path fill="#0b2647" d="M 238.410156 146.476562 L 236.667969 145.773438 C 231.625 143.734375 226.285156 142.46875 220.78125 142.003906 L 218.9375 141.847656 L 218.789062 143.6875 C 218.71875 144.511719 218.640625 145.324219 218.546875 146.101562 C 218.21875 148.789062 217.710938 151.492188 217.019531 154.125 L 216.671875 155.476562 L 217.878906 156.183594 C 220.835938 157.914062 223.734375 159.976562 226.484375 162.324219 L 227.894531 163.523438 L 229.089844 162.109375 C 232.65625 157.886719 235.546875 153.210938 237.671875 148.207031 Z M 227.425781 158.308594 C 225.324219 156.617188 223.144531 155.074219 220.925781 153.707031 C 221.488281 151.335938 221.921875 148.929688 222.207031 146.539062 C 222.234375 146.316406 222.261719 146.09375 222.285156 145.867188 C 226.132812 146.324219 229.894531 147.210938 233.492188 148.507812 C 231.859375 151.972656 229.824219 155.261719 227.425781 158.308594 Z M 227.425781 158.308594 " fill-opacity="1" fill-rule="nonzero"/><path fill="#0b2647" d="M 240.652344 138.890625 C 241.535156 134.949219 241.980469 130.925781 241.980469 126.929688 C 241.980469 123.105469 241.589844 119.3125 240.8125 115.652344 L 240.5625 114.476562 L 239.386719 114.230469 C 231.832031 112.640625 223.804688 112.707031 216.164062 114.421875 L 214.070312 114.894531 L 214.847656 116.894531 C 217.054688 122.550781 218.390625 128.476562 218.828125 134.515625 L 218.945312 136.109375 L 220.535156 136.222656 C 226.601562 136.664062 232.539062 138.003906 238.179688 140.210938 L 240.179688 140.988281 Z M 237.46875 136.011719 C 232.597656 134.296875 227.53125 133.175781 222.375 132.671875 C 221.878906 127.535156 220.757812 122.476562 219.046875 117.601562 C 225.132812 116.503906 231.449219 116.503906 237.441406 117.605469 C 238.007812 120.640625 238.292969 123.773438 238.292969 126.929688 C 238.292969 129.953125 238.015625 133.003906 237.46875 136.011719 Z M 237.46875 136.011719 " fill-opacity="1" fill-rule="nonzero"/><g clip-path="url(#cd8302ac43)"><path fill="#0b2647" d="M 243.53125 186.015625 L 245.351562 184.863281 C 248.792969 182.675781 251.957031 180.152344 254.75 177.367188 C 257.410156 174.722656 259.8125 171.761719 261.898438 168.570312 L 262.558594 167.558594 L 261.898438 166.550781 C 259.824219 163.375 257.417969 160.417969 254.757812 157.769531 C 251.972656 154.980469 248.804688 152.457031 245.347656 150.265625 L 243.53125 149.113281 L 242.671875 151.082031 C 240.230469 156.636719 236.984375 161.773438 233.023438 166.351562 L 231.976562 167.558594 L 233.023438 168.769531 C 236.984375 173.34375 240.230469 178.484375 242.675781 184.042969 Z M 245.136719 154.550781 C 247.679688 156.308594 250.03125 158.265625 252.152344 160.382812 C 254.347656 162.574219 256.359375 164.984375 258.132812 167.558594 C 256.351562 170.152344 254.34375 172.566406 252.148438 174.75 C 250.03125 176.863281 247.675781 178.820312 245.140625 180.574219 C 242.898438 175.914062 240.113281 171.546875 236.828125 167.558594 C 240.109375 163.574219 242.898438 159.207031 245.136719 154.550781 Z M 245.136719 154.550781 " fill-opacity="1" fill-rule="nonzero"/></g><g fill="#0b2647" fill-opacity="1"><g transform="translate(81.092292, 276.657608)"><g><path d="M 1.515625 -17.453125 L 6.0625 -17.453125 L 10.875 -5.734375 L 11.078125 -5.734375 L 15.890625 -17.453125 L 20.4375 -17.453125 L 20.4375 0 L 16.859375 0 L 16.859375 -11.359375 L 16.71875 -11.359375 L 12.203125 -0.078125 L 9.765625 -0.078125 L 5.234375 -11.40625 L 5.09375 -11.40625 L 5.09375 0 L 1.515625 0 Z M 1.515625 -17.453125 "/></g></g></g><g fill="#0b2647" fill-opacity="1"><g transform="translate(103.26864, 276.657608)"><g><path d="M 4.53125 0 L 0.578125 0 L 6.59375 -17.453125 L 11.359375 -17.453125 L 17.375 0 L 13.421875 0 L 12.125 -3.984375 L 5.828125 -3.984375 Z M 6.765625 -6.859375 L 11.1875 -6.859375 L 9.046875 -13.46875 L 8.90625 -13.46875 Z M 6.765625 -6.859375 "/></g></g></g><g fill="#0b2647" fill-opacity="1"><g transform="translate(121.217678, 276.657608)"><g><path d="M 10.984375 -12.4375 C 10.921875 -13.125 10.628906 -13.65625 10.109375 -14.03125 C 9.585938 -14.414062 8.882812 -14.609375 8 -14.609375 C 7.09375 -14.609375 6.398438 -14.421875 5.921875 -14.046875 C 5.441406 -13.679688 5.203125 -13.21875 5.203125 -12.65625 C 5.191406 -12.03125 5.457031 -11.554688 6 -11.234375 C 6.550781 -10.910156 7.203125 -10.660156 7.953125 -10.484375 L 9.53125 -10.109375 C 10.539062 -9.890625 11.4375 -9.5625 12.21875 -9.125 C 13.007812 -8.695312 13.628906 -8.140625 14.078125 -7.453125 C 14.535156 -6.773438 14.765625 -5.953125 14.765625 -4.984375 C 14.753906 -3.390625 14.15625 -2.117188 12.96875 -1.171875 C 11.78125 -0.222656 10.117188 0.25 7.984375 0.25 C 5.867188 0.25 4.175781 -0.234375 2.90625 -1.203125 C 1.644531 -2.171875 0.992188 -3.597656 0.953125 -5.484375 L 4.53125 -5.484375 C 4.59375 -4.609375 4.9375 -3.945312 5.5625 -3.5 C 6.1875 -3.0625 6.976562 -2.84375 7.9375 -2.84375 C 8.875 -2.84375 9.625 -3.039062 10.1875 -3.4375 C 10.75 -3.84375 11.03125 -4.363281 11.03125 -5 C 11.03125 -5.582031 10.773438 -6.03125 10.265625 -6.34375 C 9.753906 -6.664062 9.023438 -6.941406 8.078125 -7.171875 L 6.171875 -7.65625 C 4.703125 -8.007812 3.539062 -8.566406 2.6875 -9.328125 C 1.832031 -10.097656 1.410156 -11.125 1.421875 -12.40625 C 1.410156 -13.46875 1.691406 -14.394531 2.265625 -15.1875 C 2.835938 -15.976562 3.625 -16.59375 4.625 -17.03125 C 5.625 -17.46875 6.757812 -17.6875 8.03125 -17.6875 C 9.320312 -17.6875 10.453125 -17.460938 11.421875 -17.015625 C 12.390625 -16.578125 13.144531 -15.960938 13.6875 -15.171875 C 14.226562 -14.390625 14.503906 -13.476562 14.515625 -12.4375 Z M 10.984375 -12.4375 "/></g></g></g><g fill="#0b2647" fill-opacity="1"><g transform="translate(136.933734, 276.657608)"><g><path d="M 8.5 -17.453125 L 12.15625 -17.453125 L 12.15625 -5.28125 C 12.15625 -4.15625 11.898438 -3.175781 11.390625 -2.34375 C 10.890625 -1.519531 10.191406 -0.882812 9.296875 -0.4375 C 8.410156 0.0078125 7.378906 0.234375 6.203125 0.234375 C 5.148438 0.234375 4.191406 0.046875 3.328125 -0.328125 C 2.472656 -0.703125 1.796875 -1.269531 1.296875 -2.03125 C 0.796875 -2.789062 0.550781 -3.75 0.5625 -4.90625 L 4.234375 -4.90625 C 4.242188 -4.21875 4.441406 -3.679688 4.828125 -3.296875 C 5.222656 -2.910156 5.742188 -2.71875 6.390625 -2.71875 C 7.785156 -2.71875 8.488281 -3.570312 8.5 -5.28125 Z M 8.5 -17.453125 "/></g></g></g><g fill="#0b2647" fill-opacity="1"><g transform="translate(150.612844, 276.657608)"><g><path d="M 5.203125 -17.453125 L 5.203125 0 L 1.515625 0 L 1.515625 -17.453125 Z M 5.203125 -17.453125 "/></g></g></g><g fill="#0b2647" fill-opacity="1"><g transform="translate(157.345861, 276.657608)"><g><path d="M 7.703125 0 L 1.515625 0 L 1.515625 -17.453125 L 7.75 -17.453125 C 9.507812 -17.453125 11.023438 -17.101562 12.296875 -16.40625 C 13.566406 -15.707031 14.539062 -14.707031 15.21875 -13.40625 C 15.90625 -12.113281 16.25 -10.5625 16.25 -8.75 C 16.25 -6.925781 15.90625 -5.359375 15.21875 -4.046875 C 14.53125 -2.742188 13.546875 -1.742188 12.265625 -1.046875 C 10.992188 -0.347656 9.472656 0 7.703125 0 Z M 5.203125 -3.15625 L 7.546875 -3.15625 C 9.191406 -3.15625 10.4375 -3.597656 11.28125 -4.484375 C 12.132812 -5.378906 12.5625 -6.800781 12.5625 -8.75 C 12.5625 -10.6875 12.132812 -12.09375 11.28125 -12.96875 C 10.4375 -13.851562 9.195312 -14.296875 7.5625 -14.296875 L 5.203125 -14.296875 Z M 5.203125 -3.15625 "/></g></g></g><g fill="#0b2647" fill-opacity="1"><g transform="translate(174.807129, 276.657608)"><g><path d="M 16.15625 -12 L 14.046875 -12 C 13.878906 -12.800781 13.550781 -13.476562 13.0625 -14.03125 C 12.582031 -14.582031 12 -15 11.3125 -15.28125 C 10.632812 -15.570312 9.910156 -15.71875 9.140625 -15.71875 C 8.078125 -15.71875 7.117188 -15.445312 6.265625 -14.90625 C 5.410156 -14.375 4.734375 -13.585938 4.234375 -12.546875 C 3.734375 -11.515625 3.484375 -10.242188 3.484375 -8.734375 C 3.484375 -7.210938 3.734375 -5.929688 4.234375 -4.890625 C 4.734375 -3.859375 5.410156 -3.070312 6.265625 -2.53125 C 7.117188 -2 8.078125 -1.734375 9.140625 -1.734375 C 9.910156 -1.734375 10.632812 -1.875 11.3125 -2.15625 C 12 -2.445312 12.582031 -2.867188 13.0625 -3.421875 C 13.550781 -3.972656 13.878906 -4.648438 14.046875 -5.453125 L 16.15625 -5.453125 C 15.9375 -4.265625 15.492188 -3.242188 14.828125 -2.390625 C 14.171875 -1.535156 13.347656 -0.882812 12.359375 -0.4375 C 11.378906 0.0078125 10.304688 0.234375 9.140625 0.234375 C 7.648438 0.234375 6.320312 -0.125 5.15625 -0.84375 C 4 -1.570312 3.085938 -2.609375 2.421875 -3.953125 C 1.765625 -5.296875 1.4375 -6.890625 1.4375 -8.734375 C 1.4375 -10.566406 1.765625 -12.15625 2.421875 -13.5 C 3.085938 -14.84375 4 -15.875 5.15625 -16.59375 C 6.320312 -17.320312 7.648438 -17.6875 9.140625 -17.6875 C 10.304688 -17.6875 11.378906 -17.460938 12.359375 -17.015625 C 13.347656 -16.566406 14.171875 -15.914062 14.828125 -15.0625 C 15.492188 -14.21875 15.9375 -13.195312 16.15625 -12 Z M 16.15625 -12 "/></g></g></g><g fill="#0b2647" fill-opacity="1"><g transform="translate(192.26184, 276.657608)"><g><path d="M 16.84375 -8.734375 C 16.84375 -6.890625 16.507812 -5.296875 15.84375 -3.953125 C 15.175781 -2.609375 14.265625 -1.570312 13.109375 -0.84375 C 11.953125 -0.125 10.628906 0.234375 9.140625 0.234375 C 7.648438 0.234375 6.320312 -0.125 5.15625 -0.84375 C 4 -1.570312 3.085938 -2.609375 2.421875 -3.953125 C 1.765625 -5.296875 1.4375 -6.890625 1.4375 -8.734375 C 1.4375 -10.566406 1.765625 -12.15625 2.421875 -13.5 C 3.085938 -14.84375 4 -15.875 5.15625 -16.59375 C 6.320312 -17.320312 7.648438 -17.6875 9.140625 -17.6875 C 10.628906 -17.6875 11.953125 -17.320312 13.109375 -16.59375 C 14.265625 -15.875 15.175781 -14.84375 15.84375 -13.5 C 16.507812 -12.15625 16.84375 -10.566406 16.84375 -8.734375 Z M 14.796875 -8.734375 C 14.796875 -10.242188 14.539062 -11.515625 14.03125 -12.546875 C 13.53125 -13.585938 12.851562 -14.375 12 -14.90625 C 11.144531 -15.445312 10.191406 -15.71875 9.140625 -15.71875 C 8.078125 -15.71875 7.117188 -15.445312 6.265625 -14.90625 C 5.410156 -14.375 4.734375 -13.585938 4.234375 -12.546875 C 3.734375 -11.515625 3.484375 -10.242188 3.484375 -8.734375 C 3.484375 -7.210938 3.734375 -5.929688 4.234375 -4.890625 C 4.734375 -3.859375 5.410156 -3.070312 6.265625 -2.53125 C 7.117188 -2 8.078125 -1.734375 9.140625 -1.734375 C 10.191406 -1.734375 11.144531 -2 12 -2.53125 C 12.851562 -3.070312 13.53125 -3.859375 14.03125 -4.890625 C 14.539062 -5.929688 14.796875 -7.210938 14.796875 -8.734375 Z M 14.796875 -8.734375 "/></g></g></g><g fill="#0b2647" fill-opacity="1"><g transform="translate(210.534746, 276.657608)"><g><path d="M 15.953125 -17.453125 L 15.953125 0 L 13.90625 0 L 4.390625 -13.703125 L 4.234375 -13.703125 L 4.234375 0 L 2.109375 0 L 2.109375 -17.453125 L 4.15625 -17.453125 L 13.703125 -3.71875 L 13.875 -3.71875 L 13.875 -17.453125 Z M 15.953125 -17.453125 "/></g></g></g><g fill="#0b2647" fill-opacity="1"><g transform="translate(228.6031, 276.657608)"><g><path d="M 15.953125 -17.453125 L 15.953125 0 L 13.90625 0 L 4.390625 -13.703125 L 4.234375 -13.703125 L 4.234375 0 L 2.109375 0 L 2.109375 -17.453125 L 4.15625 -17.453125 L 13.703125 -3.71875 L 13.875 -3.71875 L 13.875 -17.453125 Z M 15.953125 -17.453125 "/></g></g></g><g fill="#0b2647" fill-opacity="1"><g transform="translate(246.671455, 276.657608)"><g><path d="M 2.109375 0 L 2.109375 -17.453125 L 12.640625 -17.453125 L 12.640625 -15.578125 L 4.234375 -15.578125 L 4.234375 -9.6875 L 12.109375 -9.6875 L 12.109375 -7.8125 L 4.234375 -7.8125 L 4.234375 -1.875 L 12.78125 -1.875 L 12.78125 0 Z M 2.109375 0 "/></g></g></g><g fill="#0b2647" fill-opacity="1"><g transform="translate(261.023867, 276.657608)"><g><path d="M 16.15625 -12 L 14.046875 -12 C 13.878906 -12.800781 13.550781 -13.476562 13.0625 -14.03125 C 12.582031 -14.582031 12 -15 11.3125 -15.28125 C 10.632812 -15.570312 9.910156 -15.71875 9.140625 -15.71875 C 8.078125 -15.71875 7.117188 -15.445312 6.265625 -14.90625 C 5.410156 -14.375 4.734375 -13.585938 4.234375 -12.546875 C 3.734375 -11.515625 3.484375 -10.242188 3.484375 -8.734375 C 3.484375 -7.210938 3.734375 -5.929688 4.234375 -4.890625 C 4.734375 -3.859375 5.410156 -3.070312 6.265625 -2.53125 C 7.117188 -2 8.078125 -1.734375 9.140625 -1.734375 C 9.910156 -1.734375 10.632812 -1.875 11.3125 -2.15625 C 12 -2.445312 12.582031 -2.867188 13.0625 -3.421875 C 13.550781 -3.972656 13.878906 -4.648438 14.046875 -5.453125 L 16.15625 -5.453125 C 15.9375 -4.265625 15.492188 -3.242188 14.828125 -2.390625 C 14.171875 -1.535156 13.347656 -0.882812 12.359375 -0.4375 C 11.378906 0.0078125 10.304688 0.234375 9.140625 0.234375 C 7.648438 0.234375 6.320312 -0.125 5.15625 -0.84375 C 4 -1.570312 3.085938 -2.609375 2.421875 -3.953125 C 1.765625 -5.296875 1.4375 -6.890625 1.4375 -8.734375 C 1.4375 -10.566406 1.765625 -12.15625 2.421875 -13.5 C 3.085938 -14.84375 4 -15.875 5.15625 -16.59375 C 6.320312 -17.320312 7.648438 -17.6875 9.140625 -17.6875 C 10.304688 -17.6875 11.378906 -17.460938 12.359375 -17.015625 C 13.347656 -16.566406 14.171875 -15.914062 14.828125 -15.0625 C 15.492188 -14.21875 15.9375 -13.195312 16.15625 -12 Z M 16.15625 -12 "/></g></g></g><g fill="#0b2647" fill-opacity="1"><g transform="translate(278.478578, 276.657608)"><g><path d="M 1.15625 -15.578125 L 1.15625 -17.453125 L 14.25 -17.453125 L 14.25 -15.578125 L 8.765625 -15.578125 L 8.765625 0 L 6.640625 0 L 6.640625 -15.578125 Z M 1.15625 -15.578125 "/></g></g></g></svg>