<svg xmlns="http://www.w3.org/2000/svg" viewBox="0 0 20 20" width="20" height="20" color="#000"
    fill="none">
    <path
        d="M8.15 2.793c0.469 -0.503 0.704 -0.754 0.955 -0.894a1.834 1.834 0 0 1 1.79 0c0.251 0.14 0.486 0.392 0.956 0.894 0.212 0.227 0.317 0.34 0.435 0.431a1.834 1.834 0 0 0 0.889 0.368c0.148 0.018 0.302 0.013 0.612 0.003 0.688 -0.023 1.032 -0.035 1.308 0.043a1.842 1.842 0 0 1 1.267 1.267c0.078 0.275 0.067 0.619 0.042 1.307 -0.01 0.31 -0.015 0.465 0.003 0.613a1.84 1.84 0 0 0 0.368 0.889c0.092 0.118 0.204 0.223 0.431 0.435 0.503 0.47 0.754 0.705 0.894 0.956a1.84 1.84 0 0 1 0 1.79c-0.14 0.251 -0.392 0.486 -0.894 0.956 -0.227 0.212 -0.34 0.317 -0.431 0.435a1.834 1.834 0 0 0 -0.368 0.889c-0.018 0.148 -0.013 0.302 -0.003 0.612 0.023 0.688 0.035 1.032 -0.043 1.308a1.834 1.834 0 0 1 -1.267 1.267c-0.275 0.078 -0.619 0.067 -1.308 0.042 -0.309 -0.01 -0.464 -0.015 -0.612 0.003a1.84 1.84 0 0 0 -0.889 0.368c-0.118 0.092 -0.223 0.204 -0.435 0.431 -0.47 0.503 -0.705 0.754 -0.956 0.894a1.834 1.834 0 0 1 -1.79 0c-0.251 -0.14 -0.486 -0.392 -0.956 -0.894 -0.212 -0.227 -0.317 -0.34 -0.435 -0.431a1.834 1.834 0 0 0 -0.889 -0.368c-0.148 -0.018 -0.302 -0.013 -0.613 -0.003 -0.688 0.023 -1.031 0.035 -1.308 -0.043a1.834 1.834 0 0 1 -1.267 -1.267c-0.078 -0.275 -0.067 -0.619 -0.042 -1.308 0.01 -0.309 0.015 -0.464 -0.003 -0.612a1.834 1.834 0 0 0 -0.368 -0.889c-0.092 -0.118 -0.204 -0.223 -0.431 -0.435 -0.503 -0.47 -0.754 -0.705 -0.894 -0.956a1.834 1.834 0 0 1 0 -1.79c0.14 -0.251 0.392 -0.486 0.894 -0.956 0.227 -0.212 0.34 -0.317 0.431 -0.435a1.834 1.834 0 0 0 0.368 -0.889c0.018 -0.148 0.013 -0.302 0.003 -0.613 -0.023 -0.688 -0.035 -1.031 0.043 -1.308a1.834 1.834 0 0 1 1.267 -1.267c0.275 -0.078 0.619 -0.067 1.307 -0.042 0.31 0.01 0.465 0.015 0.613 -0.003a1.84 1.84 0 0 0 0.889 -0.368c0.118 -0.092 0.223 -0.204 0.435 -0.431Z"
        stroke="currentColor" stroke-width="1.25" />
    <path
        d="M14.167 8.333v5m-2.083 -5v3.75a1.25 1.25 0 0 1 -2.5 0m0 -5.417v5.417m0 0v-3.75m0 3.75a1.25 1.25 0 0 1 -2.5 0v-3.75S5 8.75 5 10.833"
        stroke="currentColor" stroke-width="1.25" stroke-linecap="round" stroke-linejoin="round" />
</svg>